
        <svg xmlns="http://www.w3.org/2000/svg" xmlns:xlink="http://www.w3.org/1999/xlink" version="1.1" width="3125.5623777291767" height="3284.142034339016" viewBox="0 0 3125.5623777291767 3284.142034339016">
			
			<g transform="scale(14.207101716950804) translate(10, 10)">
				<defs id="SvgjsDefs2027"/><g id="SvgjsG2028" featureKey="dZL0lc-0" transform="matrix(1.2980844460026106,0,0,1.2980844460026106,33.92806669875432,-4.355355593651398)" fill="#fff"><path xmlns="http://www.w3.org/2000/svg" d="M50.123,13.665c-1.917,0-8.432,0.09-14.569,1.198C34.801,18.127,31.513,29.112,21.3,29.9  c-0.192,2.428-0.454,8.75,1.004,16.565c3.675,0.878,14.169,3.029,28.596,2.97V13.671C50.816,13.671,50.562,13.665,50.123,13.665z"/><path xmlns="http://www.w3.org/2000/svg" d="M50.899,86.164C70.24,75.846,77.168,59.127,79.521,46.393c-10.49,2.226-20.22,3.014-28.621,3.042V86.164z"/><path xmlns="http://www.w3.org/2000/svg" d="M89.052,23.537c-14.883,0-17.777-18.468-17.777-18.468c-9.688-1.917-20.375-1.707-20.375-1.707s-10.686-0.21-20.375,1.707  c0,0-2.895,18.468-17.778,18.468c0,0-6.791,49.736,38.153,73.107C95.844,73.273,89.052,23.537,89.052,23.537z M51.493,88.766  l-0.594,0.309l-0.596-0.309C13.672,69.715,18.792,28.889,18.851,28.479l0.152-1.115h1.124c10.775,0,13.043-13.667,13.067-13.805  l0.138-0.889l0.884-0.178c6.417-1.269,13.262-1.402,15.907-1.402c0.474,0,0.753,0.004,0.795,0.004c0.003,0,0.283-0.004,0.757-0.004  c2.646,0,9.487,0.134,15.907,1.402l0.882,0.178l0.142,0.889c0.091,0.562,2.322,13.805,13.066,13.805h1.125l0.151,1.115  C83.005,28.889,88.127,69.715,51.493,88.766z"/></g><g id="SvgjsG2029" featureKey="u029BI-0" transform="matrix(2.163097755607845,0,0,2.163097755607845,-3.720528201532216,129.62210634185433)" fill="#fff"><path d="M3.66 7.300000000000001 l0 4.98 l3.86 0 c1.74 0 2.92 -0.64 2.92 -2.58 c0 -1.82 -1.24 -2.4 -2.84 -2.4 l-3.94 0 z M3.66 13.940000000000001 l0 6.06 l-1.94 0 l0 -14.36 l6.46 0 c2.66 0 4.26 1.72 4.26 4.04 c0 2 -1.14 4.26 -4.26 4.26 l-4.52 0 z M17.04 13.84 l0 6.16 l-1.94 0 l0 -14.36 l6.64 0 c2.36 0 4.72 0.82 4.72 3.86 c0 2.12 -1.08 2.9 -2 3.44 c0.82 0.34 1.64 0.7 1.72 2.7 l0.12 2.6 c0.02 0.8 0.12 1.1 0.72 1.44 l0 0.32 l-2.38 0 c-0.28 -0.88 -0.34 -3.06 -0.34 -3.6 c0 -1.18 -0.24 -2.56 -2.56 -2.56 l-4.7 0 z M17.04 7.300000000000001 l0 4.88 l4.5 0 c1.42 0 2.92 -0.36 2.92 -2.48 c0 -2.22 -1.62 -2.4 -2.58 -2.4 l-4.84 0 z M40.56 12.82 c0 -3.38 -1.88 -5.84 -5 -5.84 s-5 2.46 -5 5.84 s1.88 5.84 5 5.84 s5 -2.46 5 -5.84 z M42.56 12.82 c0 3.1 -1.64 7.56 -7 7.56 s-7 -4.46 -7 -7.56 s1.64 -7.56 7 -7.56 s7 4.46 7 7.56 z M43.620000000000005 7.359999999999999 l0 -1.72 l11.66 0 l0 1.72 l-4.86 0 l0 12.64 l-1.94 0 l0 -12.64 l-4.86 0 z M67.88 18.28 l0 1.72 l-10.6 0 l0 -14.36 l10.46 0 l0 1.72 l-8.52 0 l0 4.4 l7.86 0 l0 1.72 l-7.86 0 l0 4.8 l8.66 0 z M72.36 14.96 l0 5.04 l-1.94 0 l0 -14.36 l1.94 0 l0 6.96 l6.96 -6.96 l2.68 0 l-5.98 5.8 l6.14 8.56 l-2.52 0 l-5.02 -7.2 z M82.52000000000001 7.359999999999999 l0 -1.72 l11.66 0 l0 1.72 l-4.86 0 l0 12.64 l-1.94 0 l0 -12.64 l-4.86 0 z"/></g><g id="SvgjsG2030" featureKey="u029BI-1" transform="matrix(1.8158707200682724,0,0,1.8158707200682724,-3.1232976904699066,174.44852046269568)" fill="#fff"><path d="M3.66 7.300000000000001 l0 4.98 l3.86 0 c1.74 0 2.92 -0.64 2.92 -2.58 c0 -1.82 -1.24 -2.4 -2.84 -2.4 l-3.94 0 z M3.66 13.940000000000001 l0 6.06 l-1.94 0 l0 -14.36 l6.46 0 c2.66 0 4.26 1.72 4.26 4.04 c0 2 -1.14 4.26 -4.26 4.26 l-4.52 0 z M17.04 13.84 l0 6.16 l-1.94 0 l0 -14.36 l6.64 0 c2.36 0 4.72 0.82 4.72 3.86 c0 2.12 -1.08 2.9 -2 3.44 c0.82 0.34 1.64 0.7 1.72 2.7 l0.12 2.6 c0.02 0.8 0.12 1.1 0.72 1.44 l0 0.32 l-2.38 0 c-0.28 -0.88 -0.34 -3.06 -0.34 -3.6 c0 -1.18 -0.24 -2.56 -2.56 -2.56 l-4.7 0 z M17.04 7.300000000000001 l0 4.88 l4.5 0 c1.42 0 2.92 -0.36 2.92 -2.48 c0 -2.22 -1.62 -2.4 -2.58 -2.4 l-4.84 0 z M40.56 12.82 c0 -3.38 -1.88 -5.84 -5 -5.84 s-5 2.46 -5 5.84 s1.88 5.84 5 5.84 s5 -2.46 5 -5.84 z M42.56 12.82 c0 3.1 -1.64 7.56 -7 7.56 s-7 -4.46 -7 -7.56 s1.64 -7.56 7 -7.56 s7 4.46 7 7.56 z M43.620000000000005 7.359999999999999 l0 -1.72 l11.66 0 l0 1.72 l-4.86 0 l0 12.64 l-1.94 0 l0 -12.64 l-4.86 0 z M68.34 12.82 c0 -3.38 -1.88 -5.84 -5 -5.84 s-5 2.46 -5 5.84 s1.88 5.84 5 5.84 s5 -2.46 5 -5.84 z M70.34 12.82 c0 3.1 -1.64 7.56 -7 7.56 s-7 -4.46 -7 -7.56 s1.64 -7.56 7 -7.56 s7 4.46 7 7.56 z M84.60000000000001 9.96 l-1.88 0 c-0.54 -2.52 -2.64 -2.98 -4.02 -2.98 c-2.6 0 -4.7 1.92 -4.7 5.7 c0 3.38 1.2 5.98 4.76 5.98 c1.26 0 3.44 -0.6 4.1 -3.94 l1.88 0 c-0.8 5.42 -5.2 5.66 -6.28 5.66 c-3.26 0 -6.46 -2.12 -6.46 -7.64 c0 -4.42 2.52 -7.48 6.7 -7.48 c3.7 0 5.62 2.3 5.9 4.7 z M98.34 12.82 c0 -3.38 -1.88 -5.84 -5 -5.84 s-5 2.46 -5 5.84 s1.88 5.84 5 5.84 s5 -2.46 5 -5.84 z M100.34 12.82 c0 3.1 -1.64 7.56 -7 7.56 s-7 -4.46 -7 -7.56 s1.64 -7.56 7 -7.56 s7 4.46 7 7.56 z M104.58 5.640000000000001 l0 12.64 l7.28 0 l0 1.72 l-9.22 0 l0 -14.36 l1.94 0 z"/></g>
			</g>
		</svg>
	